<?xml version="1.0" encoding="utf-8"?>
<!-- Generated by Mocodo 4.1.2 -->
<svg width="314" height="440" viewBox="0 0 314 440" xmlns="http://www.w3.org/2000/svg">
<rect x="0" y="0" width="314" height="440" fill="#f7f7f7" stroke="none" stroke-width="0"/>

<!-- Association IS -->
<g>
	<line x1="60" y1="85" x2="162" y2="85" stroke="#8073ac" stroke-width="2"/>
	<line x1="256" y1="85" x2="162" y2="85" stroke="#8073ac" stroke-width="2"/>
	<g>
		<path d="M161 60 a14 14 90 0 1 14 14 V85 h-26 V74 a14 14 90 0 1 14 -14" fill="#b2abd2" stroke="#b2abd2" stroke-width="0"/>
		<path d="M175 85 v11 a14 14 90 0 1 -14 14 H163 a14 14 90 0 1 -14 -14 V85 H26" fill="#d8daeb" stroke="#d8daeb" stroke-width="0"/>
		<rect x="149" y="60" width="26" height="50" fill="none" rx="14" stroke="#8073ac" stroke-width="2"/>
		<line x1="149" y1="85" x2="175" y2="85" stroke="#8073ac" stroke-width="1"/>
		<text x="156" y="77.75" fill="#000000" font-family="Verdana" font-size="12">Is</text>
	</g>
	<text x="112" y="77" fill="#b35806" font-family="Verdana" font-size="12">0,1</text>
	<text x="180" y="102" fill="#b35806" font-family="Verdana" font-size="12">0,N</text>
</g>

<!-- Association HAS -->
<g>
	<line x1="60" y1="237" x2="162" y2="237" stroke="#8073ac" stroke-width="2"/>
	<line x1="60" y1="85" x2="162" y2="237" stroke="#8073ac" stroke-width="2"/>
	<g>
		<path d="M167 212 a14 14 90 0 1 14 14 V237 h-38 V226 a14 14 90 0 1 14 -14" fill="#b2abd2" stroke="#b2abd2" stroke-width="0"/>
		<path d="M181 237 v11 a14 14 90 0 1 -14 14 H157 a14 14 90 0 1 -14 -14 V237 H38" fill="#d8daeb" stroke="#d8daeb" stroke-width="0"/>
		<rect x="143" y="212" width="38" height="50" fill="none" rx="14" stroke="#8073ac" stroke-width="2"/>
		<line x1="143" y1="237" x2="181" y2="237" stroke="#8073ac" stroke-width="1"/>
		<text x="151" y="229.75" fill="#000000" font-family="Verdana" font-size="12">Has</text>
	</g>
	<text x="116" y="229" fill="#b35806" font-family="Verdana" font-size="12">0,1</text>
	<text x="112" y="152.18" fill="#b35806" font-family="Verdana" font-size="12">0,N</text>
</g>

<!-- Association WRITE -->
<g>
	<line x1="60" y1="372" x2="162" y2="372" stroke="#8073ac" stroke-width="2"/>
	<line x1="60" y1="237" x2="162" y2="372" stroke="#8073ac" stroke-width="2"/>
	<g>
		<path d="M172 347 a14 14 90 0 1 14 14 V372 h-48 V361 a14 14 90 0 1 14 -14" fill="#b2abd2" stroke="#b2abd2" stroke-width="0"/>
		<path d="M186 372 v11 a14 14 90 0 1 -14 14 H152 a14 14 90 0 1 -14 -14 V372 H48" fill="#d8daeb" stroke="#d8daeb" stroke-width="0"/>
		<rect x="138" y="347" width="48" height="50" fill="none" rx="14" stroke="#8073ac" stroke-width="2"/>
		<line x1="138" y1="372" x2="186" y2="372" stroke="#8073ac" stroke-width="1"/>
		<text x="146" y="364.75" fill="#000000" font-family="Verdana" font-size="12">Write</text>
	</g>
	<text x="109" y="389" fill="#b35806" font-family="Verdana" font-size="12">0,N</text>
	<text x="77.23" y="305" fill="#b35806" font-family="Verdana" font-size="12">0,N</text>
</g>

<!-- Entity POST -->
<g>
	<g>
		<rect x="13" y="9" width="94" height="25" fill="#fdb863" stroke="none" stroke-width="0" opacity="1"/>
		<rect x="13" y="34" width="94" height="127" fill="#fee0b6" stroke="none" stroke-width="0" opacity="1"/>
		<rect x="13" y="9" width="94" height="152" fill="none" stroke="#e08214" stroke-width="2" opacity="1"/>
		<line x1="13" y1="34" x2="107" y2="34" stroke="#e08214" stroke-width="1"/>
	</g>
	<text x="47" y="26.75" fill="#000000" font-family="Verdana" font-size="12">Post</text>
	<text x="18" y="51.8" fill="#000000" font-family="Verdana" font-size="12">num_post</text>
	<line x1="18" y1="54" x2="79" y2="54" stroke="#000000" stroke-width="1"/>
	<text x="18" y="68.8" fill="#000000" font-family="Verdana" font-size="12">title</text>
	<text x="18" y="85.8" fill="#000000" font-family="Verdana" font-size="12">descrip</text>
	<text x="18" y="102.8" fill="#000000" font-family="Verdana" font-size="12">descrip_short</text>
	<text x="18" y="119.8" fill="#000000" font-family="Verdana" font-size="12">audio_link</text>
	<text x="18" y="136.8" fill="#000000" font-family="Verdana" font-size="12">created_at</text>
	<text x="18" y="153.8" fill="#000000" font-family="Verdana" font-size="12">updated_at</text>
</g>

<!-- Entity CATEGORY -->
<g>
	<g>
		<rect x="207" y="34" width="98" height="25" fill="#fdb863" stroke="none" stroke-width="0" opacity="1"/>
		<rect x="207" y="59" width="98" height="77" fill="#fee0b6" stroke="none" stroke-width="0" opacity="1"/>
		<rect x="207" y="34" width="98" height="102" fill="none" stroke="#e08214" stroke-width="2" opacity="1"/>
		<line x1="207" y1="59" x2="305" y2="59" stroke="#e08214" stroke-width="1"/>
	</g>
	<text x="228" y="51.75" fill="#000000" font-family="Verdana" font-size="12">Category</text>
	<text x="212" y="76.8" fill="#000000" font-family="Verdana" font-size="12">num_category</text>
	<line x1="212" y1="79" x2="300" y2="79" stroke="#000000" stroke-width="1"/>
	<text x="212" y="93.8" fill="#000000" font-family="Verdana" font-size="12">name</text>
	<text x="212" y="110.8" fill="#000000" font-family="Verdana" font-size="12">created_at</text>
	<text x="212" y="127.8" fill="#000000" font-family="Verdana" font-size="12">updated_at</text>
</g>

<!-- Entity COMMENT -->
<g>
	<g>
		<rect x="9" y="186" width="102" height="25" fill="#fdb863" stroke="none" stroke-width="0" opacity="1"/>
		<rect x="9" y="211" width="102" height="77" fill="#fee0b6" stroke="none" stroke-width="0" opacity="1"/>
		<rect x="9" y="186" width="102" height="102" fill="none" stroke="#e08214" stroke-width="2" opacity="1"/>
		<line x1="9" y1="211" x2="111" y2="211" stroke="#e08214" stroke-width="1"/>
	</g>
	<text x="31" y="203.75" fill="#000000" font-family="Verdana" font-size="12">Comment</text>
	<text x="14" y="228.8" fill="#000000" font-family="Verdana" font-size="12">num_comment</text>
	<line x1="14" y1="231" x2="106" y2="231" stroke="#000000" stroke-width="1"/>
	<text x="14" y="245.8" fill="#000000" font-family="Verdana" font-size="12">body</text>
	<text x="14" y="262.8" fill="#000000" font-family="Verdana" font-size="12">created_at</text>
	<text x="14" y="279.8" fill="#000000" font-family="Verdana" font-size="12">updated_at</text>
</g>

<!-- Entity USERS -->
<g>
	<g>
		<rect x="16" y="313" width="88" height="25" fill="#fdb863" stroke="none" stroke-width="0" opacity="1"/>
		<rect x="16" y="338" width="88" height="93" fill="#fee0b6" stroke="none" stroke-width="0" opacity="1"/>
		<rect x="16" y="313" width="88" height="118" fill="none" stroke="#e08214" stroke-width="2" opacity="1"/>
		<line x1="16" y1="338" x2="104" y2="338" stroke="#e08214" stroke-width="1"/>
	</g>
	<text x="43" y="330.75" fill="#000000" font-family="Verdana" font-size="12">Users</text>
	<text x="21" y="355.8" fill="#000000" font-family="Verdana" font-size="12">num_user</text>
	<line x1="21" y1="358" x2="83" y2="358" stroke="#000000" stroke-width="1"/>
	<text x="21" y="372.8" fill="#000000" font-family="Verdana" font-size="12">pseudonyme</text>
	<text x="21" y="389.8" fill="#000000" font-family="Verdana" font-size="12">avatar</text>
	<text x="21" y="406.8" fill="#000000" font-family="Verdana" font-size="12">created_at</text>
	<text x="21" y="423.8" fill="#000000" font-family="Verdana" font-size="12">updated_at</text>
</g>
</svg>