<?xml version="1.0" encoding="utf-8"?>
<!-- Generated by Mocodo 4.1.2 -->
<svg width="500" height="297" viewBox="0 0 500 297" xmlns="http://www.w3.org/2000/svg">
<rect x="0" y="0" width="500" height="297" fill="#f7f7f7" stroke="none" stroke-width="0"/>

<!-- Association WRITE -->
<g>
	<line x1="53" y1="85" x2="153" y2="85" stroke="#8073ac" stroke-width="2"/>
	<line x1="153" y1="237" x2="153" y2="85" stroke="#8073ac" stroke-width="2"/>
	<g>
		<path d="M163 60 a14 14 90 0 1 14 14 V85 h-48 V74 a14 14 90 0 1 14 -14" fill="#b2abd2" stroke="#b2abd2" stroke-width="0"/>
		<path d="M177 85 v11 a14 14 90 0 1 -14 14 H143 a14 14 90 0 1 -14 -14 V85 H48" fill="#d8daeb" stroke="#d8daeb" stroke-width="0"/>
		<rect x="129" y="60" width="48" height="50" fill="none" rx="14" stroke="#8073ac" stroke-width="2"/>
		<line x1="129" y1="85" x2="177" y2="85" stroke="#8073ac" stroke-width="1"/>
		<text x="137" y="77.75" fill="#000000" font-family="Verdana" font-size="12">Write</text>
	</g>
	<text x="102" y="102" fill="#b35806" font-family="Verdana" font-size="12">0,N</text>
	<text x="158" y="178" fill="#b35806" font-family="Verdana" font-size="12">0,1</text>
</g>

<!-- Association IS -->
<g>
	<line x1="256" y1="85" x2="348" y2="85" stroke="#8073ac" stroke-width="2"/>
	<line x1="442" y1="85" x2="348" y2="85" stroke="#8073ac" stroke-width="2"/>
	<g>
		<path d="M347 60 a14 14 90 0 1 14 14 V85 h-26 V74 a14 14 90 0 1 14 -14" fill="#b2abd2" stroke="#b2abd2" stroke-width="0"/>
		<path d="M361 85 v11 a14 14 90 0 1 -14 14 H349 a14 14 90 0 1 -14 -14 V85 H26" fill="#d8daeb" stroke="#d8daeb" stroke-width="0"/>
		<rect x="335" y="60" width="26" height="50" fill="none" rx="14" stroke="#8073ac" stroke-width="2"/>
		<line x1="335" y1="85" x2="361" y2="85" stroke="#8073ac" stroke-width="1"/>
		<text x="342" y="77.75" fill="#000000" font-family="Verdana" font-size="12">Is</text>
	</g>
	<text x="308" y="102" fill="#b35806" font-family="Verdana" font-size="12">0,1</text>
	<text x="366" y="102" fill="#b35806" font-family="Verdana" font-size="12">0,N</text>
</g>

<!-- Association HAS -->
<g>
	<line x1="153" y1="237" x2="256" y2="237" stroke="#8073ac" stroke-width="2"/>
	<line x1="256" y1="85" x2="256" y2="237" stroke="#8073ac" stroke-width="2"/>
	<g>
		<path d="M261 212 a14 14 90 0 1 14 14 V237 h-38 V226 a14 14 90 0 1 14 -14" fill="#b2abd2" stroke="#b2abd2" stroke-width="0"/>
		<path d="M275 237 v11 a14 14 90 0 1 -14 14 H251 a14 14 90 0 1 -14 -14 V237 H38" fill="#d8daeb" stroke="#d8daeb" stroke-width="0"/>
		<rect x="237" y="212" width="38" height="50" fill="none" rx="14" stroke="#8073ac" stroke-width="2"/>
		<line x1="237" y1="237" x2="275" y2="237" stroke="#8073ac" stroke-width="1"/>
		<text x="245" y="229.75" fill="#000000" font-family="Verdana" font-size="12">Has</text>
	</g>
	<text x="209" y="254" fill="#b35806" font-family="Verdana" font-size="12">1,1</text>
	<text x="261" y="178" fill="#b35806" font-family="Verdana" font-size="12">0,N</text>
</g>

<!-- Entity USERS -->
<g>
	<g>
		<rect x="9" y="26" width="88" height="25" fill="#fdb863" stroke="none" stroke-width="0" opacity="1"/>
		<rect x="9" y="51" width="88" height="93" fill="#fee0b6" stroke="none" stroke-width="0" opacity="1"/>
		<rect x="9" y="26" width="88" height="118" fill="none" stroke="#e08214" stroke-width="2" opacity="1"/>
		<line x1="9" y1="51" x2="97" y2="51" stroke="#e08214" stroke-width="1"/>
	</g>
	<text x="36" y="43.75" fill="#000000" font-family="Verdana" font-size="12">Users</text>
	<text x="14" y="68.8" fill="#000000" font-family="Verdana" font-size="12">num_user</text>
	<line x1="14" y1="71" x2="76" y2="71" stroke="#000000" stroke-width="1"/>
	<text x="14" y="85.8" fill="#000000" font-family="Verdana" font-size="12">pseudonyme</text>
	<text x="14" y="102.8" fill="#000000" font-family="Verdana" font-size="12">avatar</text>
	<text x="14" y="119.8" fill="#000000" font-family="Verdana" font-size="12">created_at</text>
	<text x="14" y="136.8" fill="#000000" font-family="Verdana" font-size="12">updated_at</text>
</g>

<!-- Entity POST -->
<g>
	<g>
		<rect x="209" y="9" width="94" height="25" fill="#fdb863" stroke="none" stroke-width="0" opacity="1"/>
		<rect x="209" y="34" width="94" height="127" fill="#fee0b6" stroke="none" stroke-width="0" opacity="1"/>
		<rect x="209" y="9" width="94" height="152" fill="none" stroke="#e08214" stroke-width="2" opacity="1"/>
		<line x1="209" y1="34" x2="303" y2="34" stroke="#e08214" stroke-width="1"/>
	</g>
	<text x="243" y="26.75" fill="#000000" font-family="Verdana" font-size="12">Post</text>
	<text x="214" y="51.8" fill="#000000" font-family="Verdana" font-size="12">num_post</text>
	<line x1="214" y1="54" x2="275" y2="54" stroke="#000000" stroke-width="1"/>
	<text x="214" y="68.8" fill="#000000" font-family="Verdana" font-size="12">title</text>
	<text x="214" y="85.8" fill="#000000" font-family="Verdana" font-size="12">descrip</text>
	<text x="214" y="102.8" fill="#000000" font-family="Verdana" font-size="12">descrip_short</text>
	<text x="214" y="119.8" fill="#000000" font-family="Verdana" font-size="12">audio_link</text>
	<text x="214" y="136.8" fill="#000000" font-family="Verdana" font-size="12">created_at</text>
	<text x="214" y="153.8" fill="#000000" font-family="Verdana" font-size="12">updated_at</text>
</g>

<!-- Entity CATEGORY -->
<g>
	<g>
		<rect x="393" y="34" width="98" height="25" fill="#fdb863" stroke="none" stroke-width="0" opacity="1"/>
		<rect x="393" y="59" width="98" height="77" fill="#fee0b6" stroke="none" stroke-width="0" opacity="1"/>
		<rect x="393" y="34" width="98" height="102" fill="none" stroke="#e08214" stroke-width="2" opacity="1"/>
		<line x1="393" y1="59" x2="491" y2="59" stroke="#e08214" stroke-width="1"/>
	</g>
	<text x="414" y="51.75" fill="#000000" font-family="Verdana" font-size="12">Category</text>
	<text x="398" y="76.8" fill="#000000" font-family="Verdana" font-size="12">num_category</text>
	<line x1="398" y1="79" x2="486" y2="79" stroke="#000000" stroke-width="1"/>
	<text x="398" y="93.8" fill="#000000" font-family="Verdana" font-size="12">name</text>
	<text x="398" y="110.8" fill="#000000" font-family="Verdana" font-size="12">created_at</text>
	<text x="398" y="127.8" fill="#000000" font-family="Verdana" font-size="12">updated_at</text>
</g>

<!-- Entity COMMENT -->
<g>
	<g>
		<rect x="102" y="186" width="102" height="25" fill="#fdb863" stroke="none" stroke-width="0" opacity="1"/>
		<rect x="102" y="211" width="102" height="77" fill="#fee0b6" stroke="none" stroke-width="0" opacity="1"/>
		<rect x="102" y="186" width="102" height="102" fill="none" stroke="#e08214" stroke-width="2" opacity="1"/>
		<line x1="102" y1="211" x2="204" y2="211" stroke="#e08214" stroke-width="1"/>
	</g>
	<text x="124" y="203.75" fill="#000000" font-family="Verdana" font-size="12">Comment</text>
	<text x="107" y="228.8" fill="#000000" font-family="Verdana" font-size="12">num_comment</text>
	<line x1="107" y1="231" x2="199" y2="231" stroke="#000000" stroke-width="1"/>
	<text x="107" y="245.8" fill="#000000" font-family="Verdana" font-size="12">body</text>
	<text x="107" y="262.8" fill="#000000" font-family="Verdana" font-size="12">created_at</text>
	<text x="107" y="279.8" fill="#000000" font-family="Verdana" font-size="12">updated_at</text>
</g>
</svg>